<svg width="11" height="9" viewBox="0 0 11 9" fill="none" xmlns="http://www.w3.org/2000/svg">
<path d="M9.625 0H1.375C0.615656 0 0 0.615656 0 1.375V6.875C0 7.63434 0.615656 8.25 1.375 8.25H9.625C10.3843 8.25 11 7.63434 11 6.875V1.375C11 0.615656 10.3843 0 9.625 0ZM7.36175 3.66912L10.2722 1.17492C10.2924 1.23937 10.3125 1.30382 10.3125 1.375V6.875C10.3125 6.92267 10.2944 6.96498 10.285 7.00994L7.36175 3.66912ZM9.625 0.6875C9.67065 0.6875 9.71094 0.704967 9.75391 0.71369L5.5 4.36L1.24609 0.71369C1.28906 0.704967 1.32935 0.6875 1.375 0.6875H9.625ZM0.714699 7.00928C0.705289 6.96429 0.6875 6.92267 0.6875 6.875V1.375C0.6875 1.30382 0.707975 1.23937 0.728127 1.17492L3.63758 3.66846L0.714699 7.00928ZM1.375 7.5625C1.30552 7.5625 1.2424 7.54235 1.17896 7.52288L4.15991 4.11626L5.27643 5.07298C5.34054 5.12873 5.42044 5.15625 5.5 5.15625C5.57956 5.15625 5.65946 5.12873 5.72357 5.073L6.84009 4.11628L9.82104 7.5229C9.75795 7.54235 9.69482 7.5625 9.625 7.5625H1.375Z" fill="#FEFEFE"/>
</svg>
